<?xml version="1.0" encoding="iso-8859-1"?>
<!-- Generator: Adobe Illustrator 16.0.0, SVG Export Plug-In . SVG Version: 6.00 Build 0)  -->
<!DOCTYPE svg PUBLIC "-//W3C//DTD SVG 1.1//EN" "http://www.w3.org/Graphics/SVG/1.1/DTD/svg11.dtd">
<svg version="1.1" id="Capa_1" xmlns="http://www.w3.org/2000/svg" xmlns:xlink="http://www.w3.org/1999/xlink" x="0px" y="0px"
	 width="37.195px" height="37.195px" viewBox="0 0 37.195 37.195" style="enable-background:new 0 0 37.195 37.195;"
	 xml:space="preserve">
<g>
	<g id="_x31_35_86_">
		<g>
			<path d="M19.332,22.844c-0.5,0.416-1.114,0.441-1.612,0C11.84,17.616,5.957,12.391,0.074,7.162C0.044,7.208,0.028,7.271,0,7.319
				v23.677h37.195V7.998C31.239,12.946,25.286,17.896,19.332,22.844z"/>
			<path d="M16.729,18.922c0.607,0.541,1.217,1.082,1.823,1.623C24.264,15.8,29.971,11.056,35.68,6.311
				c-0.076-0.04-0.158-0.072-0.233-0.111H2.412c2.83,2.517,5.662,5.032,8.492,7.548C12.847,15.472,14.789,17.197,16.729,18.922z"/>
		</g>
	</g>
</g>
<g>
</g>
<g>
</g>
<g>
</g>
<g>
</g>
<g>
</g>
<g>
</g>
<g>
</g>
<g>
</g>
<g>
</g>
<g>
</g>
<g>
</g>
<g>
</g>
<g>
</g>
<g>
</g>
<g>
</g>
</svg>
