<?xml version="1.0" ?><!DOCTYPE svg  PUBLIC '-//W3C//DTD SVG 1.1//EN'  'http://www.w3.org/Graphics/SVG/1.1/DTD/svg11.dtd'><svg enable-background="new 0 0 512 512" id="Layer_1" version="1.1" viewBox="0 0 512 512" xml:space="preserve" xmlns="http://www.w3.org/2000/svg" xmlns:xlink="http://www.w3.org/1999/xlink"><g><path d="M29.2,250.2c0.5-5.5,1.5-16.1,2.3-26.7c0.2-2.5-0.1-5.3-1.2-7.5c-40.1-80,2.5-175.4,89-198.3c34.2-9.1,67.3-5,99.1,10.8   c2.5,1.2,5.7,1.9,8.4,1.6c64-7.1,121.8,8.3,172,48.9c46.8,37.9,74.2,87.2,82.4,147.1c2.7,19.8,2.5,39.5,0.1,59.3   c-0.4,3,0.3,6.7,1.8,9.3c48.3,84.7-2.9,192-99.2,207.1c-33.8,5.3-65.6-1.2-95-18.9c-2.2-1.3-5.3-2.1-7.8-1.9   c-96.7,9.3-184.7-39-228.4-125.4C37.7,325.9,29.7,291.5,29.2,250.2z M48.6,255.4c0.7,50.2,18.1,98.3,52.2,136.2   c48.8,54.2,110.1,76.8,182.6,68.7c4.5-0.5,8.2,0.2,12.1,2.8c31.2,20.6,65,25.9,100.7,15.4c75.5-22.3,108.7-110.1,67.3-177.3   c-2.2-3.5-4.2-6.8-3.4-11.5c4.8-26.9,3.9-53.7-2.1-80.4C434.7,106.6,336.5,35.1,227,50.4c-5.8,0.8-10.5,0-15.6-2.7   c-53.4-29.1-120-14-154.5,36.1c-27.9,40.6-29.2,83.4-6.7,127c1.6,3.2,2.5,6.1,2,9.8C50.7,232.2,49.7,243.8,48.6,255.4z"/><path d="M253.5,383.1c-20.5-0.2-40.5-2.7-59.5-11c-11.6-5.1-22-11.9-30.6-21.2c-7.9-8.5-12.7-18.3-12.7-30.1   c-0.1-18.8,18.7-30.1,35.1-20.8c3.9,2.2,7.3,5.8,10.5,9.1c3.4,3.5,6.4,7.2,9.3,11.1c13.6,18,32.6,22.4,53.7,21.2   c10-0.5,19.3-3.3,27.5-9.4c9.4-7.1,14.2-16.3,12.1-28.2c-2-11.3-10.2-16.9-20.3-19.7c-19.6-5.4-39.3-10.2-59-15.1   c-15.4-3.9-30.5-8.2-43.6-17.8c-15.7-11.4-24-27-25-46.2c-1.8-35.4,13.7-60.3,47.4-72.7c40.7-15,80.8-12.7,118.9,9.2   c7.1,4.1,13.6,9.7,19.2,15.7c4,4.3,6.8,10.4,8.4,16.1c3.3,11.6-0.1,20.3-8.8,25.8c-9.8,6.2-22.2,6-30.8-1.3   c-5.7-4.8-10.7-10.5-15.9-15.9c-5.8-6-12.8-10.1-20.8-12.3c-13.8-3.8-27.6-4.4-41.4-0.5c-8.5,2.4-15.4,7.1-19.4,15.3   c-5.3,10.7-3.2,21,7.1,26.9c7.9,4.6,16.8,8.1,25.7,10.4c18.6,4.9,37.7,8.4,56.3,13.3c8.9,2.4,17.8,5.8,25.9,10.3   c26.9,14.9,36,40,32.8,68.5c-3.7,32.5-24.9,55.3-59.5,63.9c-13.8,3.4-28.2,4.5-42.3,6.6C253.6,384,253.6,383.5,253.5,383.1z"/></g></svg>