<?xml version="1.0" standalone="no"?>
<!DOCTYPE svg PUBLIC "-//W3C//DTD SVG 20010904//EN"
 "http://www.w3.org/TR/2001/REC-SVG-20010904/DTD/svg10.dtd">
<svg version="1.0" xmlns="http://www.w3.org/2000/svg"
 width="80px" height="80px" viewBox="0 0 479.000000 480.000000"
 preserveAspectRatio="xMidYMid meet">

<g transform="translate(0.000000,480.000000) scale(0.100000,-0.100000)"
fill="#ffffff" stroke="none">
<path d="M2155 4784 c-251 -36 -403 -71 -578 -135 -1136 -417 -1782 -1625
-1496 -2797 206 -844 849 -1508 1683 -1737 227 -62 361 -79 626 -79 264 -1
373 12 595 69 883 226 1564 941 1745 1834 34 168 44 281 44 481 -1 198 -9 286
-45 465 -179 892 -864 1612 -1749 1835 -208 53 -287 62 -550 65 -135 2 -258 1
-275 -1z m344 -892 c17 -17 38 -59 56 -112 83 -256 152 -386 256 -487 85 -82
125 -95 311 -103 143 -7 162 -10 212 -34 75 -37 117 -89 187 -231 69 -141 199
-522 199 -584 0 -74 -70 -119 -136 -88 -39 19 -50 39 -110 195 -70 180 -96
235 -105 220 -23 -35 -6 -123 86 -450 52 -185 95 -344 95 -352 0 -13 -15 -16
-90 -16 l-89 0 5 -62 c9 -123 24 -458 24 -541 0 -75 -3 -87 -24 -110 -30 -32
-85 -44 -122 -25 -59 29 -61 38 -94 391 -16 180 -30 332 -30 337 0 6 -11 10
-25 10 -14 0 -25 -1 -25 -3 0 -10 -51 -583 -56 -629 -4 -36 -14 -65 -26 -78
-45 -48 -116 -49 -162 -3 -24 24 -26 32 -26 115 0 91 16 437 25 540 l5 57 -94
3 -94 3 100 350 99 350 -11 155 c-16 223 -14 217 -139 341 -119 117 -181 203
-244 339 l-43 91 -23 -48 c-44 -91 -128 -208 -219 -306 -119 -127 -125 -147
-142 -433 -11 -179 -10 -273 4 -620 39 -938 39 -906 -14 -946 -60 -44 -155
-27 -186 34 -14 26 -48 376 -81 828 l-7 105 -8 -95 c-5 -52 -22 -255 -37 -451
-32 -389 -35 -405 -95 -433 -42 -20 -67 -20 -111 -2 -68 29 -69 34 -61 344 3
152 12 390 18 527 14 283 17 779 6 791 -5 4 -10 5 -13 3 -13 -14 -57 -225 -75
-362 -11 -87 -25 -167 -30 -177 -29 -55 -117 -68 -168 -25 -16 14 -33 37 -36
51 -7 28 8 262 25 384 41 296 156 518 301 585 49 22 69 25 245 29 222 6 240
12 328 100 90 90 203 279 275 459 28 72 58 97 117 97 35 0 50 -6 72 -28z
m-666 -78 c29 -10 65 -34 92 -61 133 -133 74 -364 -106 -417 -66 -20 -82 -20
-148 0 -179 53 -238 282 -108 417 70 72 172 95 270 61z m1376 -104 c52 -26 91
-68 118 -127 19 -40 30 -53 53 -58 43 -9 99 -78 158 -191 55 -108 102 -161
153 -171 16 -3 32 -9 34 -13 9 -15 -66 -32 -112 -27 -71 8 -119 49 -203 175
l-74 112 -14 -28 c-23 -43 -74 -93 -117 -113 -48 -22 -151 -25 -198 -6 -122
52 -184 214 -127 332 59 123 211 176 329 115z"/>
</g>
</svg>
